<svg width="25" height="25" fill="none" xmlns="http://www.w3.org/2000/svg"><g clip-path="url(#clip0)" fill="#fff"><path d="M22.283 2.173h-6.522a.544.544 0 000 1.087h6.522a.544.544 0 000-1.087z"/><path d="M22.668 2.333L20.494.159a.544.544 0 00-.769.768l1.79 1.79-1.79 1.79a.544.544 0 00.769.768l2.174-2.174a.544.544 0 000-.768zM8.152 2.173H1.63a.544.544 0 000 1.087h6.522a.544.544 0 000-1.087z"/><path d="M2.399 2.717L4.188.927A.544.544 0 003.419.16L1.245 2.333a.544.544 0 000 .769L3.42 5.276a.546.546 0 00.769-.002.544.544 0 000-.768l-1.79-1.79zM21.74 10.87c-.447 0-.864.135-1.21.367a2.18 2.18 0 00-2.052-1.455c-.446 0-.863.136-1.208.368a2.18 2.18 0 00-2.053-1.455c-.395 0-.767.107-1.086.293V5.434a2.176 2.176 0 00-2.174-2.174 2.176 2.176 0 00-2.174 2.174v9.24l-1.89-1.417a2.85 2.85 0 00-3.705.263 1.632 1.632 0 000 2.306l7.74 7.741A4.862 4.862 0 0015.388 25h2.547a5.985 5.985 0 005.979-5.978v-5.979a2.176 2.176 0 00-2.175-2.174zm1.087 8.152a4.897 4.897 0 01-4.892 4.891h-2.547a3.78 3.78 0 01-2.691-1.114l-7.74-7.742a.544.544 0 010-.768 1.753 1.753 0 011.239-.509c.367 0 .737.114 1.046.347L10 16.195a.545.545 0 00.87-.434V5.434a1.088 1.088 0 012.174 0v8.153a.544.544 0 001.087 0v-2.718a1.088 1.088 0 012.174 0v2.718a.544.544 0 001.087 0v-1.63a1.088 1.088 0 012.174 0v1.63a.544.544 0 001.087 0v-.544a1.088 1.088 0 012.174 0v5.979z"/></g><defs><clipPath id="clip0"><path fill="#fff" d="M0 0h25v25H0z"/></clipPath></defs></svg>