<svg width="25" height="25" viewBox="0 0 25 25" fill="none" xmlns="http://www.w3.org/2000/svg">
<path d="M11.8716 14.5C11.8716 14.3227 11.881 14.1593 11.8996 14.01C11.9276 13.8513 11.979 13.6973 12.0536 13.548C12.1376 13.3893 12.2496 13.226 12.3896 13.058C12.539 12.89 12.735 12.7033 12.9776 12.498C13.3696 12.162 13.6683 11.8587 13.8736 11.588C14.079 11.3173 14.1816 11.028 14.1816 10.72C14.1816 10.272 14.0323 9.90333 13.7336 9.614C13.435 9.32467 13.0243 9.18 12.5016 9.18C11.979 9.18 11.5683 9.32467 11.2696 9.614C10.971 9.90333 10.8216 10.272 10.8216 10.72H9.56164C9.56164 10.3373 9.62697 9.98733 9.75764 9.67C9.89764 9.34333 10.0936 9.06333 10.3456 8.83C10.607 8.58733 10.9196 8.40067 11.2836 8.27C11.6476 8.13 12.0536 8.06 12.5016 8.06C12.9496 8.06 13.3556 8.13 13.7196 8.27C14.0836 8.40067 14.3916 8.58733 14.6436 8.83C14.905 9.06333 15.101 9.34333 15.2316 9.67C15.3716 9.98733 15.4416 10.3373 15.4416 10.72C15.4416 10.9813 15.3996 11.2287 15.3156 11.462C15.2316 11.6953 15.115 11.9193 14.9656 12.134C14.8256 12.3393 14.6623 12.54 14.4756 12.736C14.289 12.9227 14.0976 13.1 13.9016 13.268C13.743 13.3987 13.6123 13.5247 13.5096 13.646C13.407 13.758 13.323 13.87 13.2576 13.982C13.2016 14.0847 13.1596 14.192 13.1316 14.304C13.113 14.4067 13.1036 14.5187 13.1036 14.64V14.92H11.8716V14.5ZM12.5016 18.14C12.231 18.14 11.9976 18.0467 11.8016 17.86C11.615 17.664 11.5216 17.4307 11.5216 17.16C11.5216 16.88 11.615 16.6467 11.8016 16.46C11.9976 16.2733 12.231 16.18 12.5016 16.18C12.7723 16.18 13.001 16.2733 13.1876 16.46C13.3836 16.6467 13.4816 16.88 13.4816 17.16C13.4816 17.4307 13.3836 17.664 13.1876 17.86C13.001 18.0467 12.7723 18.14 12.5016 18.14Z" fill="white"/>
<circle cx="12.5" cy="12.5" r="12" stroke="white"/>
</svg>
