<?xml version="1.0" encoding="utf-8"?><svg viewBox="0 0 290 80" xmlns="http://www.w3.org/2000/svg" xmlns:xlink="http://www.w3.org/1999/xlink"><style>:root>svg{display:none}:root>svg:target{display:block}</style><svg fill="none" viewBox="0 0 290 40" id="logo" xmlns="http://www.w3.org/2000/svg"><path d="M290 0H0v40h290V0z" fill="#A09F9F"/><path d="M160.496 0H0v40h160.496V0z" fill="#771213"/><path d="M20.465 19.58c.425.096.823.24 1.195.432.32.176.63.42.93.732.3.312.523.724.664 1.237l.93 3.84c.177.72.531 1.08 1.063 1.08.106 0 .23-.016.372-.049a.346.346 0 00.159-.072h.133l.265 1.561a1.874 1.874 0 01-.398.12c-.301.08-.7.12-1.195.12-.868 0-1.55-.221-2.046-.66-.496-.439-.832-1.02-1.01-1.74l-.93-3.84c-.14-.544-.407-.98-.796-1.309-.39-.327-.922-.491-1.594-.491h-1.86v7.8h-2.656v-16.8h2.656v7.32h1.594c.744 0 1.324-.164 1.74-.492.416-.328.678-.764.784-1.308l.664-3.36c.142-.72.47-1.3.983-1.74.514-.44 1.204-.66 2.072-.66a5.23 5.23 0 011.195.12l.399.12-.266 1.56h-.133a.918.918 0 00-.159-.048 4.54 4.54 0 00-.173-.048.95.95 0 00-.877.24c-.185.176-.314.448-.384.816l-.665 3.36c-.09.48-.278.864-.57 1.152a3.334 3.334 0 01-.89.648 3.962 3.962 0 01-1.196.359zm13.309.72c.07.16.142.34.212.54s.133.396.187.588l.185.672h.107a4.64 4.64 0 01.16-.672l.172-.576c.062-.208.12-.392.172-.552l3.188-8.76h2.657l-4.915 13.8a5.185 5.185 0 01-1.713 2.351 5.107 5.107 0 01-1.342.732 4.564 4.564 0 01-1.594.276 5.63 5.63 0 01-2.045-.36 3.12 3.12 0 01-.744-.359l.664-1.561h.266c.123.128.274.232.451.313a2.23 2.23 0 001.142.287c.532 0 .997-.16 1.395-.479.399-.32.687-.72.864-1.2l.531-1.439h-1.195l-5.473-12.36h2.79l3.878 8.759zm14.743-2.04c2.195 0 3.83.452 4.902 1.356 1.071.904 1.607 2.132 1.607 3.684 0 1.568-.536 2.8-1.607 3.696-1.072.896-2.705 1.344-4.901 1.344H43.47v-16.8h10.36v1.68h-7.703v5.04h2.39zm-2.39 1.68v6.72h2.39c1.276 0 2.236-.288 2.883-.864.645-.576.97-1.407.97-2.496 0-1.088-.324-1.92-.97-2.496-.647-.576-1.607-.864-2.883-.864h-2.39zm22.18 8.4l-1.46-4.32h-6.11l-1.462 4.32H56.62l5.446-16.8h3.453l5.446 16.8h-2.657zm-7.038-6h5.047l-2.125-6.6a2.82 2.82 0 01-.16-.564c-.035-.2-.07-.388-.106-.564a6.743 6.743 0 01-.08-.552h-.106a6.431 6.431 0 01-.08.576c-.035.176-.075.36-.12.552a8.625 8.625 0 01-.145.552l-2.125 6.6zm24.438-10.8v16.8h-2.655v-7.68H76.41v7.68h-2.657v-16.8h2.657v7.44h6.64v-7.44h2.656zm3.853 8.4c0-1.552.159-2.876.477-3.972.319-1.096.77-1.992 1.356-2.688a5.067 5.067 0 012.099-1.512c.813-.312 1.718-.468 2.71-.468.743 0 1.398.068 1.964.204a9.025 9.025 0 011.461.468c.461.192.867.408 1.222.648l-.93 1.44h-.265a8.003 8.003 0 00-.902-.528 8.76 8.76 0 00-1.01-.372c-.39-.12-.813-.18-1.274-.18-.603 0-1.16.116-1.675.348-.513.232-.96.616-1.341 1.152-.38.536-.682 1.252-.903 2.148-.22.896-.331 2-.331 3.312 0 1.328.11 2.436.33 3.324.222.889.532 1.6.93 2.137.4.535.874.92 1.423 1.151a4.655 4.655 0 001.832.349c.46 0 .885-.057 1.275-.168.39-.112.725-.232 1.008-.36.32-.16.621-.345.903-.552h.266l.93 1.439a6.06 6.06 0 01-1.222.672 8.406 8.406 0 01-1.461.456c-.566.128-1.222.192-1.965.192-1.064 0-2.019-.156-2.87-.469a5.208 5.208 0 01-2.178-1.512c-.602-.695-1.063-1.588-1.382-2.676-.319-1.088-.478-2.415-.478-3.983zm21.384-.36c.425.096.823.24 1.195.432.318.176.628.42.93.732.3.312.522.724.664 1.237l.93 3.84c.177.72.531 1.08 1.064 1.08.106 0 .229-.016.372-.049a.356.356 0 00.159-.072h.133l.265 1.561c-.106.048-.24.088-.398.12-.301.08-.7.12-1.195.12-.868 0-1.55-.221-2.047-.66-.495-.439-.832-1.02-1.008-1.74l-.931-3.84c-.141-.544-.407-.98-.796-1.309-.392-.327-.922-.491-1.594-.491h-1.861v7.8h-2.655v-16.8h2.655v7.32h1.594c.744 0 1.324-.164 1.739-.492.417-.328.679-.764.785-1.308l.664-3.36c.142-.72.469-1.3.984-1.74.512-.44 1.204-.66 2.071-.66.266 0 .496.012.692.036.195.024.362.052.503.084l.399.12-.266 1.56h-.133a.84.84 0 00-.159-.048 5.019 5.019 0 00-.173-.048.948.948 0 00-.876.24c-.186.176-.315.448-.386.816l-.664 3.36c-.089.48-.279.864-.572 1.152a3.349 3.349 0 01-.89.648 3.94 3.94 0 01-1.194.359zm11.423 8.76h-2.656v-16.8h2.656v10.68c0 .177-.006.384-.015.624-.008.24-.022.465-.038.672-.018.256-.036.504-.055.744h.108c.07-.24.15-.488.239-.744.088-.207.177-.432.266-.672.088-.24.185-.447.292-.624l5.844-10.68h2.655v16.8h-2.655V17.66a15.921 15.921 0 01.053-1.296l.053-.744h-.106c-.07.256-.151.504-.239.744-.089.224-.182.452-.279.684-.097.232-.19.436-.279.612l-5.844 10.68zm14.078 0v-16.8h10.359v1.68h-7.702v5.52h6.109v1.68h-6.109v6.24h7.702v1.68h-10.359zm49.951-16.74v16.8h-2.657v-7.68h-6.641v7.68h-2.655V11.6h2.655v7.44h6.641V11.6h2.657zm16.87 8.4c0 1.568-.161 2.896-.479 3.984-.318 1.088-.761 1.979-1.328 2.676a4.937 4.937 0 01-2.059 1.512c-.807.313-1.685.469-2.643.469-.957 0-1.837-.156-2.644-.469a4.907 4.907 0 01-2.058-1.512c-.568-.696-1.009-1.588-1.328-2.676-.319-1.088-.478-2.416-.478-3.984 0-1.552.159-2.876.478-3.972.319-1.096.761-1.992 1.328-2.688a4.91 4.91 0 012.058-1.512c.807-.312 1.687-.468 2.644-.468.958 0 1.836.156 2.643.468a4.907 4.907 0 012.059 1.512c.567.696 1.01 1.592 1.328 2.688.318 1.096.479 2.42.479 3.972zm-10.362 0c0 1.328.108 2.436.319 3.324.212.888.5 1.6.863 2.136s.774.921 1.236 1.151c.46.232.938.349 1.434.349.495 0 .974-.116 1.435-.349.46-.23.872-.615 1.235-1.151.362-.536.651-1.248.862-2.136.213-.889.319-1.996.319-3.324 0-1.312-.106-2.416-.319-3.312-.211-.896-.5-1.612-.862-2.148-.363-.536-.775-.92-1.235-1.152a3.17 3.17 0 00-1.435-.348c-.496 0-.974.116-1.434.348-.462.232-.873.616-1.236 1.152-.363.536-.651 1.252-.863 2.148-.211.896-.319 2-.319 3.312zm22.049-.48c.691.144 1.311.4 1.86.768.23.16.456.348.677.564.22.216.421.468.598.755.176.289.319.617.425.984.106.368.159.784.159 1.248 0 .688-.128 1.313-.385 1.872a3.75 3.75 0 01-1.182 1.44c-.53.4-1.204.707-2.018.924-.815.216-1.789.324-2.923.324h-5.048V11.6h5.048c.956 0 1.802.108 2.537.324.735.216 1.346.508 1.833.876.486.368.853.813 1.102 1.332.248.52.372 1.076.372 1.668 0 .784-.159 1.416-.478 1.896-.319.48-.673.856-1.063 1.128-.461.32-.966.552-1.514.696zm-5.18-.72h2.391c1.009 0 1.793-.248 2.351-.744s.837-1.167.837-2.016-.279-1.52-.837-2.016c-.558-.496-1.342-.744-2.351-.744h-2.391v5.52zm0 1.68v6.24h2.391c1.328 0 2.302-.264 2.923-.792.62-.527.93-1.304.93-2.328 0-1.023-.31-1.8-.93-2.328-.621-.527-1.594-.792-2.923-.792h-2.391zm24.705-.48c0 1.568-.16 2.896-.478 3.984-.319 1.088-.761 1.979-1.328 2.676a4.937 4.937 0 01-2.059 1.512c-.807.313-1.686.469-2.643.469-.958 0-1.838-.156-2.644-.469a4.9 4.9 0 01-2.058-1.512c-.568-.696-1.01-1.588-1.328-2.676-.319-1.088-.479-2.416-.479-3.984 0-1.552.16-2.876.479-3.972.318-1.096.761-1.992 1.328-2.688a4.91 4.91 0 012.058-1.512c.806-.312 1.686-.468 2.644-.468.957 0 1.836.156 2.643.468a4.907 4.907 0 012.059 1.512c.567.696 1.009 1.592 1.328 2.688.318 1.096.478 2.42.478 3.972zm-10.36 0c0 1.328.107 2.436.319 3.324.212.888.5 1.6.863 2.136s.774.921 1.235 1.151c.461.232.939.349 1.435.349.495 0 .974-.116 1.434-.349.461-.23.873-.615 1.236-1.151.362-.536.65-1.248.862-2.136.212-.889.319-1.996.319-3.324 0-1.312-.107-2.416-.319-3.312-.212-.896-.5-1.612-.862-2.148-.363-.536-.775-.92-1.236-1.152a3.162 3.162 0 00-1.434-.348c-.496 0-.974.116-1.435.348-.461.232-.872.616-1.235 1.152-.363.536-.651 1.252-.863 2.148-.213.896-.319 2-.319 3.312zm13.282 0c0-1.552.16-2.876.479-3.972.318-1.096.77-1.992 1.354-2.688a5.084 5.084 0 012.099-1.512c.814-.312 1.718-.468 2.71-.468.743 0 1.399.068 1.964.204a9.002 9.002 0 011.461.468c.461.192.868.408 1.222.648l-.929 1.44h-.265a8.06 8.06 0 00-.903-.528 8.786 8.786 0 00-1.01-.372 4.308 4.308 0 00-1.275-.18c-.602 0-1.16.116-1.673.348-.514.232-.961.616-1.342 1.152-.381.536-.682 1.252-.903 2.148-.221.896-.332 2-.332 3.312 0 1.328.111 2.436.332 3.324.221.888.531 1.6.931 2.136.397.536.871.921 1.42 1.151.549.232 1.16.349 1.833.349.46 0 .885-.056 1.275-.168.39-.112.725-.231 1.009-.36.319-.16.62-.344.903-.552h.265l.93 1.44a6.113 6.113 0 01-1.222.672 8.278 8.278 0 01-1.461.455c-.567.129-1.222.193-1.966.193-1.062 0-2.018-.156-2.869-.469a5.224 5.224 0 01-2.178-1.512c-.602-.696-1.063-1.588-1.382-2.676-.318-1.088-.477-2.415-.477-3.983zm17.267 8.4V13.28h-4.781V11.6h12.22v1.68h-4.782V28.4h-2.657zm12.752 0h-2.656V11.6h2.656v10.679a16.975 16.975 0 01-.053 1.297l-.053.744h.106c.071-.24.15-.488.24-.744.087-.208.176-.432.265-.672.088-.24.186-.448.293-.625L274.06 11.6h2.656v16.8h-2.656V17.72a18.512 18.512 0 01.054-1.296l.053-.744h-.107c-.07.256-.151.504-.239.744-.089.224-.182.452-.279.684-.097.232-.19.436-.279.612l-5.844 10.68z" fill="#fff"/></svg><svg fill="none" viewBox="0 0 26 25" id="svg--age" xmlns="http://www.w3.org/2000/svg"><path d="M5.322 15.18h1.67v-5.15l-1.67 1.19V10.2L7.012 9h.94v6.18h1.37V16h-4v-.82zm7.354.92a3.59 3.59 0 01-1.09-.15 2.391 2.391 0 01-.79-.41 1.727 1.727 0 01-.47-.61c-.1-.24-.15-.5-.15-.78 0-.4.127-.757.38-1.07.253-.32.627-.547 1.12-.68-.18-.06-.35-.14-.51-.24a2.167 2.167 0 01-.41-.37 1.597 1.597 0 01-.28-.47 1.788 1.788 0 01.05-1.3c.1-.227.247-.42.44-.58.193-.167.433-.297.72-.39a3 3 0 01.99-.15 3 3 0 01.99.15c.287.093.527.223.72.39.193.16.34.353.44.58.1.227.15.47.15.73 0 .4-.127.74-.38 1.02-.247.28-.553.49-.92.63.5.167.873.387 1.12.66.253.273.38.637.38 1.09 0 .28-.053.54-.16.78a1.59 1.59 0 01-.47.61c-.207.173-.467.31-.78.41-.313.1-.677.15-1.09.15zm0-.84c.287 0 .53-.03.73-.09.2-.067.36-.15.48-.25a.902.902 0 00.27-.37c.053-.147.08-.3.08-.46 0-.187-.04-.357-.12-.51a1.15 1.15 0 00-.32-.4 1.521 1.521 0 00-.5-.28 2.488 2.488 0 00-.62-.15 2.643 2.643 0 00-.63.15c-.187.067-.35.157-.49.27-.14.113-.25.25-.33.41a1.17 1.17 0 00-.11.51c0 .16.027.313.08.46.053.14.14.263.26.37.127.1.29.183.49.25.2.06.443.09.73.09zm0-3.21c.4-.053.727-.18.98-.38.253-.207.38-.497.38-.87 0-.34-.113-.6-.34-.78-.22-.187-.56-.28-1.02-.28-.467 0-.81.093-1.03.28-.22.18-.33.44-.33.78 0 .373.127.663.38.87.253.2.58.327.98.38zm5.364.76h-1.81v-.82h1.81v-1.84h.88v1.84h1.81v.82h-1.81v1.84h-.88v-1.84z" fill="#fff"/><circle cx="12.5" cy="12.5" r="12" stroke="#fff"/></svg><svg fill="none" viewBox="0 0 11 18" id="svg--arrow-slider" xmlns="http://www.w3.org/2000/svg"><path d="M1 1l8 8-8 8"/></svg><svg viewBox="0 0 16 16" id="svg--fa" xmlns="http://www.w3.org/2000/svg"><g clip-path="url(#dclip0)"><path d="M10.665 2.657h1.46V.113A18.86 18.86 0 009.997 0C7.891 0 6.45 1.325 6.45 3.76V6H4.125v2.844h2.324V16h2.85V8.845h2.23L11.881 6H9.297V4.04c.001-.822.222-1.384 1.368-1.384z"/></g><defs><clipPath id="dclip0"><path fill="#fff" d="M0 0h16v16H0z"/></clipPath></defs></svg><svg fill="none" viewBox="0 0 30 30" id="svg--icon-search" xmlns="http://www.w3.org/2000/svg"><circle cx="14" cy="14" r="8" stroke="#141E26" stroke-width="2"/><path d="M23.293 24.707a1 1 0 001.414-1.414l-1.414 1.414zm1.414-1.414l-4-4-1.414 1.414 4 4 1.414-1.414z" fill="#141E26"/></svg><svg fill="none" viewBox="0 0 30 30" id="svg--icons-news24" xmlns="http://www.w3.org/2000/svg"><circle cx="15" cy="15" r="9.5" stroke="#141E26"/><path fill="#141E26" d="M12 2h6v1h-6zM9.746 17.019l2.205-1.899c.204-.18.378-.336.522-.468.144-.138.261-.264.351-.378a1.115 1.115 0 00.252-.684c0-.258-.072-.465-.216-.621-.144-.162-.357-.243-.639-.243-.324 0-.579.09-.765.27-.18.174-.27.477-.27.909h-1.35c0-.714.201-1.278.603-1.692.408-.414 1.002-.621 1.782-.621.366 0 .684.051.954.153.276.096.507.234.693.414.186.174.324.384.414.63.096.246.144.513.144.801 0 .216-.039.423-.117.621a2.406 2.406 0 01-.324.558c-.132.18-.288.357-.468.531-.18.168-.372.336-.576.504l-1.296 1.08h2.871V18h-4.77v-.981zm8.277-.351h-2.97v-.936l2.97-4.032h1.35v3.852h.72v1.116h-.72V18h-1.35v-1.332zm0-1.116v-2.349l-1.71 2.349h1.71z"/></svg><svg viewBox="0 0 16 16" id="svg--in" xmlns="http://www.w3.org/2000/svg"><g clip-path="url(#gclip0)"><path d="M15.984 4.704c-.037-.85-.175-1.435-.372-1.941a3.905 3.905 0 00-.925-1.419 3.938 3.938 0 00-1.416-.922c-.51-.197-1.09-.334-1.94-.372C10.473.01 10.2 0 8.03 0 5.857 0 5.585.01 4.732.047c-.85.037-1.434.175-1.94.372a3.904 3.904 0 00-1.42.925A3.94 3.94 0 00.45 2.76C.253 3.27.116 3.85.078 4.7c-.04.857-.05 1.13-.05 3.302s.01 2.444.047 3.297c.037.85.175 1.435.372 1.941.203.538.519 1.019.925 1.42.4.405.885.721 1.416.921.51.197 1.09.335 1.941.372.853.038 1.125.047 3.298.047 2.172 0 2.444-.01 3.297-.047.85-.037 1.435-.175 1.941-.372a4.093 4.093 0 002.341-2.34c.197-.51.335-1.092.372-1.942.037-.853.047-1.125.047-3.297 0-2.173-.003-2.445-.04-3.298zm-1.44 6.533c-.035.781-.166 1.203-.276 1.484a2.654 2.654 0 01-1.519 1.52c-.281.109-.706.24-1.484.274-.844.038-1.097.047-3.232.047-2.135 0-2.391-.01-3.232-.047-.782-.034-1.204-.165-1.485-.275a2.462 2.462 0 01-.919-.597 2.488 2.488 0 01-.597-.919c-.11-.28-.24-.706-.275-1.484-.037-.844-.047-1.097-.047-3.232 0-2.135.01-2.391.047-3.232.035-.781.166-1.203.275-1.485.128-.347.332-.662.6-.919.26-.265.572-.469.92-.597.28-.109.706-.24 1.484-.275.844-.037 1.097-.047 3.232-.047 2.138 0 2.39.01 3.232.047.781.035 1.203.166 1.484.275.347.128.663.332.92.597.265.26.468.572.596.92.11.28.241.706.275 1.484.038.844.047 1.097.047 3.232 0 2.135-.01 2.385-.046 3.229z"/><path d="M8.03 3.892a4.111 4.111 0 000 8.22 4.111 4.111 0 000-8.22zm0 6.776a2.667 2.667 0 110-5.333 2.667 2.667 0 010 5.333zm5.232-6.938a.96.96 0 11-1.92-.001.96.96 0 011.92 0z"/></g><defs><clipPath id="gclip0"><path fill="#fff" d="M0 0h16v16H0z"/></clipPath></defs></svg><svg viewBox="0 0 16 16" id="svg--od" xmlns="http://www.w3.org/2000/svg"><g clip-path="url(#hclip0)"><path d="M3.147 8.587c-.408.803.056 1.187 1.114 1.843.9.556 2.144.76 2.942.841l-3.147 3.027c-.916.878.559 2.287 1.474 1.428l2.478-2.39c.949.912 1.858 1.787 2.478 2.393.916.863 2.39-.534 1.484-1.427l-3.157-3.028c.808-.08 2.033-.296 2.922-.84 1.058-.66 1.522-1.044 1.12-1.847-.244-.456-.9-.837-1.773-.178 0 0-1.18.903-3.081.903-1.903 0-3.082-.903-3.082-.903-.872-.663-1.531-.278-1.772.178z"/><path d="M8 8.095c2.318 0 4.211-1.812 4.211-4.043C12.211 1.812 10.318 0 8 0S3.787 1.812 3.787 4.052c0 2.23 1.893 4.043 4.212 4.043zm0-6.042c1.139 0 2.068.894 2.068 1.999 0 1.096-.93 1.99-2.069 1.99-1.139 0-2.068-.894-2.068-1.99-.001-1.106.928-2 2.068-2z"/></g><defs><clipPath id="hclip0"><path fill="#fff" d="M0 0h16v16H0z"/></clipPath></defs></svg><svg fill="none" viewBox="0 0 80 80" id="svg--play-icon" xmlns="http://www.w3.org/2000/svg"><circle cx="40" cy="40" r="40" fill="#fff"/><path d="M53 40L33.5 51.258V28.742L53 40z" fill="#141E26"/></svg><svg fill="none" viewBox="0 0 20 8" id="svg--sm-arrow" xmlns="http://www.w3.org/2000/svg"><path d="M0 4h18m0 0l-7-3m7 3l-7 3"/></svg><svg viewBox="0 0 30 30" id="svg--target-icon" xmlns="http://www.w3.org/2000/svg"><path fill-rule="evenodd" clip-rule="evenodd" d="M15 25l6.005-7.506C25.033 12.459 21.448 5 15 5 8.552 5 4.967 12.459 8.995 17.494L15 25zm0-1.6l5.224-6.53C23.728 12.488 20.61 6 15 6s-8.728 6.489-5.224 10.87L15 23.4z"/><circle cx="15" cy="13" r="2.5" fill="none"/></svg><svg viewBox="0 0 16 16" id="svg--te" xmlns="http://www.w3.org/2000/svg"><g clip-path="url(#lclip0)"><path d="M6.278 10.12l-.265 3.723c.379 0 .543-.162.74-.358l1.775-1.696 3.678 2.694c.675.376 1.15.178 1.333-.621l2.414-11.315c.215-.998-.36-1.388-1.017-1.143L.743 6.838c-.97.376-.954.916-.165 1.16l3.629 1.13 8.428-5.275c.397-.262.758-.117.46.146L6.279 10.12z"/></g><defs><clipPath id="lclip0"><path fill="#fff" d="M0 0h16v16H0z"/></clipPath></defs></svg><svg viewBox="0 0 16 16" id="svg--tw" xmlns="http://www.w3.org/2000/svg"><g clip-path="url(#mclip0)"><path d="M16 3.039a6.839 6.839 0 01-1.89.518 3.262 3.262 0 001.443-1.813 6.555 6.555 0 01-2.08.794 3.28 3.28 0 00-5.674 2.243c0 .26.022.51.076.748a9.284 9.284 0 01-6.761-3.431 3.285 3.285 0 001.008 4.384A3.24 3.24 0 01.64 6.078v.036a3.295 3.295 0 002.628 3.223 3.274 3.274 0 01-.86.108 2.9 2.9 0 01-.621-.056 3.311 3.311 0 003.065 2.285 6.59 6.59 0 01-4.067 1.399c-.269 0-.527-.012-.785-.045A9.234 9.234 0 005.032 14.5c6.036 0 9.336-5 9.336-9.334 0-.145-.005-.285-.012-.424A6.544 6.544 0 0016 3.039z"/></g><defs><clipPath id="mclip0"><path fill="#fff" d="M0 0h16v16H0z"/></clipPath></defs></svg><svg viewBox="0 0 16 16" id="svg--vk" xmlns="http://www.w3.org/2000/svg"><g clip-path="url(#nclip0)"><path d="M15.857 11.578c-.043-.072-.309-.65-1.589-1.838-1.34-1.244-1.16-1.042.454-3.193.983-1.31 1.376-2.11 1.253-2.452-.117-.326-.84-.24-.84-.24l-2.404.014s-.178-.024-.31.055c-.13.078-.213.258-.213.258s-.38 1.014-.889 1.876c-1.071 1.819-1.5 1.915-1.675 1.802-.407-.263-.305-1.058-.305-1.622 0-1.763.267-2.498-.521-2.688-.262-.063-.454-.105-1.123-.112-.858-.01-1.585.003-1.996.204-.274.134-.485.433-.356.45.159.02.519.097.71.357.247.335.238 1.089.238 1.089s.142 2.075-.331 2.333c-.325.177-.77-.184-1.725-1.835-.49-.845-.86-1.78-.86-1.78s-.07-.174-.198-.267c-.154-.113-.37-.15-.37-.15l-2.286.015s-.343.01-.469.159c-.112.133-.009.407-.009.407s1.79 4.187 3.817 6.298c1.859 1.935 3.969 1.808 3.969 1.808h.956s.289-.032.436-.19c.136-.147.13-.42.13-.42s-.018-1.284.578-1.473c.587-.186 1.341 1.24 2.14 1.79.604.414 1.063.323 1.063.323l2.137-.03s1.118-.069.588-.948z"/></g><defs><clipPath id="nclip0"><path fill="#fff" d="M0 0h16v16H0z"/></clipPath></defs></svg></svg>