<svg width="26" height="25" fill="none" xmlns="http://www.w3.org/2000/svg"><path d="M5.322 15.18h1.67v-5.15l-1.67 1.19V10.2L7.012 9h.94v6.18h1.37V16h-4v-.82zm7.354.92a3.59 3.59 0 01-1.09-.15 2.391 2.391 0 01-.79-.41 1.727 1.727 0 01-.47-.61c-.1-.24-.15-.5-.15-.78 0-.4.127-.757.38-1.07.253-.32.627-.547 1.12-.68-.18-.06-.35-.14-.51-.24a2.167 2.167 0 01-.41-.37 1.597 1.597 0 01-.28-.47 1.788 1.788 0 01.05-1.3c.1-.227.247-.42.44-.58.193-.167.433-.297.72-.39a3 3 0 01.99-.15 3 3 0 01.99.15c.287.093.527.223.72.39.193.16.34.353.44.58.1.227.15.47.15.73 0 .4-.127.74-.38 1.02-.247.28-.553.49-.92.63.5.167.873.387 1.12.66.253.273.38.637.38 1.09 0 .28-.053.54-.16.78-.1.233-.257.437-.47.61-.207.173-.467.31-.78.41-.313.1-.677.15-1.09.15zm0-.84c.287 0 .53-.03.73-.09.2-.067.36-.15.48-.25a.902.902 0 00.27-.37c.053-.147.08-.3.08-.46 0-.187-.04-.357-.12-.51a1.15 1.15 0 00-.32-.4 1.521 1.521 0 00-.5-.28 2.488 2.488 0 00-.62-.15 2.643 2.643 0 00-.63.15c-.187.067-.35.157-.49.27-.14.113-.25.25-.33.41-.073.153-.11.323-.11.51 0 .16.027.313.08.46.053.14.14.263.26.37.127.1.29.183.49.25.2.06.443.09.73.09zm0-3.21c.4-.053.727-.18.98-.38.253-.207.38-.497.38-.87 0-.34-.113-.6-.34-.78-.22-.187-.56-.28-1.02-.28-.467 0-.81.093-1.03.28-.22.18-.33.44-.33.78 0 .373.127.663.38.87.253.2.58.327.98.38zm5.364.76h-1.81v-.82h1.81v-1.84h.88v1.84h1.81v.82h-1.81v1.84h-.88v-1.84z" fill="#fff"/><circle cx="12.5" cy="12.5" r="12" stroke="#fff"/></svg>