<svg width="25" height="25" fill="none" xmlns="http://www.w3.org/2000/svg"><path d="M11.872 14.5c0-.177.009-.34.028-.49.028-.159.079-.313.154-.462.084-.159.196-.322.336-.49.149-.168.345-.355.588-.56.392-.336.69-.64.896-.91.205-.27.308-.56.308-.868 0-.448-.15-.817-.448-1.106-.299-.29-.71-.434-1.232-.434-.523 0-.934.145-1.232.434-.299.29-.448.658-.448 1.106h-1.26c0-.383.065-.733.196-1.05a2.44 2.44 0 01.588-.84 2.7 2.7 0 01.938-.56c.364-.14.77-.21 1.218-.21.448 0 .854.07 1.218.21.364.13.672.317.924.56.261.233.457.513.588.84.14.317.21.667.21 1.05 0 .261-.042.509-.126.742-.084.233-.201.457-.35.672-.14.205-.304.406-.49.602-.187.187-.378.364-.574.532-.159.13-.29.257-.392.378a1.978 1.978 0 00-.252.336c-.056.103-.098.21-.126.322a1.888 1.888 0 00-.028.336v.28h-1.232v-.42zm.63 3.64a.98.98 0 01-.7-.28.98.98 0 01-.28-.7.95.95 0 01.28-.7.98.98 0 01.7-.28c.27 0 .499.093.686.28.196.187.294.42.294.7 0 .27-.098.504-.294.7a.933.933 0 01-.686.28z" fill="#fff"/><circle cx="12.5" cy="12.5" r="12" stroke="#fff"/></svg>