<svg width="16" height="16" xmlns="http://www.w3.org/2000/svg"><g clip-path="url(#clip0)"><path d="M3.147 8.587c-.408.803.056 1.187 1.114 1.843.9.556 2.144.76 2.942.841l-3.147 3.027c-.916.878.559 2.287 1.474 1.428l2.478-2.39c.949.912 1.858 1.787 2.478 2.393.916.863 2.39-.534 1.484-1.427l-3.157-3.028c.808-.08 2.033-.296 2.922-.84 1.058-.66 1.522-1.044 1.12-1.847-.244-.456-.9-.837-1.773-.178 0 0-1.18.903-3.081.903-1.903 0-3.082-.903-3.082-.903-.872-.663-1.531-.278-1.772.178z"/><path d="M8 8.095c2.318 0 4.211-1.812 4.211-4.043C12.211 1.812 10.318 0 8 0S3.787 1.812 3.787 4.052c0 2.23 1.893 4.043 4.212 4.043zm0-6.042c1.139 0 2.068.894 2.068 1.999 0 1.096-.93 1.99-2.069 1.99-1.139 0-2.068-.894-2.068-1.99-.001-1.106.928-2 2.068-2z"/></g><defs><clipPath id="clip0"><path fill="#fff" d="M0 0h16v16H0z"/></clipPath></defs></svg>