<svg width="30" height="30" fill="none" xmlns="http://www.w3.org/2000/svg"><circle cx="15" cy="15" r="9.5" stroke="#141E26"/><path fill="#141E26" d="M12 2h6v1h-6zM9.746 17.019l2.205-1.899c.204-.18.378-.336.522-.468.144-.138.261-.264.351-.378a1.115 1.115 0 00.252-.684c0-.258-.072-.465-.216-.621-.144-.162-.357-.243-.639-.243-.324 0-.579.09-.765.27-.18.174-.27.477-.27.909h-1.35c0-.714.201-1.278.603-1.692.408-.414 1.002-.621 1.782-.621.366 0 .684.051.954.153.276.096.507.234.693.414.186.174.324.384.414.63.096.246.144.513.144.801 0 .216-.039.423-.117.621a2.406 2.406 0 01-.324.558c-.132.18-.288.357-.468.531-.18.168-.372.336-.576.504l-1.296 1.08h2.871V18h-4.77v-.981zm8.277-.351h-2.97v-.936l2.97-4.032h1.35v3.852h.72v1.116h-.72V18h-1.35v-1.332zm0-1.116v-2.349l-1.71 2.349h1.71z"/></svg>