<svg width="26" height="20" fill="none" xmlns="http://www.w3.org/2000/svg"><path d="M20.404 20c-2.229 0-3.844-.84-4.845-2.518-.455-.72-.819-1.607-1.092-2.662a13.16 13.16 0 01-.41-3.31c0-2.493.592-4.747 1.775-6.762C17.06 2.734 18.857 1.151 21.223 0l.614 1.295c-1.32.576-2.48 1.463-3.48 2.662-.955 1.199-1.524 2.422-1.706 3.669a7.17 7.17 0 00-.205 1.655c0 .48.068.935.205 1.367 1-1.152 2.32-1.727 3.958-1.727 1.592 0 2.889.503 3.89 1.51 1 .96 1.501 2.303 1.501 4.03 0 1.63-.523 2.973-1.57 4.028C23.384 19.496 22.042 20 20.404 20zM6.346 20c-2.229 0-3.844-.84-4.845-2.518-.455-.72-.819-1.607-1.092-2.662A13.162 13.162 0 010 11.51c0-2.493.591-4.747 1.774-6.762C3.003 2.734 4.8 1.151 7.165 0l.615 1.295C6.46 1.871 5.3 2.758 4.3 3.957c-.956 1.199-1.525 2.422-1.707 3.669a7.17 7.17 0 00-.205 1.655c0 .48.069.935.205 1.367C3.594 9.496 4.913 8.92 6.551 8.92c1.592 0 2.89.503 3.89 1.51 1 .96 1.501 2.303 1.501 4.03 0 1.63-.523 2.973-1.57 4.028C9.327 19.496 7.985 20 6.347 20z" fill="#A09F9F"/></svg>