<svg width="290" height="40" fill="none" xmlns="http://www.w3.org/2000/svg"><path d="M290 0H0v40h290V0z" fill="#A09F9F"/><path d="M160.496 0H0v40h160.496V0z" fill="#771213"/><path d="M20.465 19.58c.425.096.823.24 1.195.432.32.176.63.42.93.732.3.312.523.724.664 1.237l.93 3.84c.177.72.531 1.08 1.063 1.08.106 0 .23-.016.372-.049a.346.346 0 00.159-.072h.133l.265 1.561c-.106.048-.239.088-.398.12-.301.08-.7.12-1.195.12-.868 0-1.55-.221-2.046-.66-.496-.439-.832-1.02-1.01-1.74l-.93-3.84c-.14-.544-.407-.98-.796-1.309-.39-.327-.922-.491-1.594-.491h-1.86v7.8h-2.656v-16.8h2.656v7.32h1.594c.744 0 1.324-.164 1.74-.492.416-.328.678-.764.784-1.308l.664-3.36c.142-.72.47-1.3.983-1.74.514-.44 1.204-.66 2.072-.66a5.23 5.23 0 011.195.12l.399.12-.266 1.56h-.133a.918.918 0 00-.159-.048 4.54 4.54 0 00-.173-.048.95.95 0 00-.877.24c-.185.176-.314.448-.384.816l-.665 3.36c-.09.48-.278.864-.57 1.152a3.334 3.334 0 01-.89.648 3.962 3.962 0 01-1.196.359zM33.774 20.3c.07.16.142.34.212.54s.133.396.187.588l.185.672h.107a4.64 4.64 0 01.16-.672l.172-.576c.062-.208.12-.392.172-.552l3.188-8.76h2.657l-4.915 13.8a5.185 5.185 0 01-1.713 2.351 5.107 5.107 0 01-1.342.732 4.564 4.564 0 01-1.594.276 5.63 5.63 0 01-2.045-.36 3.12 3.12 0 01-.744-.359l.664-1.561h.266c.123.128.274.232.451.313a2.23 2.23 0 001.142.287c.532 0 .997-.16 1.395-.479.399-.32.687-.72.864-1.2l.531-1.439h-1.195l-5.473-12.36h2.79l3.878 8.759zM48.517 18.26c2.195 0 3.83.452 4.902 1.356 1.071.904 1.607 2.132 1.607 3.684 0 1.568-.536 2.8-1.607 3.696-1.072.896-2.705 1.344-4.901 1.344H43.47v-16.8h10.36v1.68h-7.703v5.04h2.39zm-2.39 1.68v6.72h2.39c1.276 0 2.236-.288 2.883-.864.645-.576.97-1.407.97-2.496 0-1.088-.324-1.92-.97-2.496-.647-.576-1.607-.864-2.883-.864h-2.39zM68.307 28.34l-1.46-4.32h-6.11l-1.462 4.32H56.62l5.446-16.8h3.453l5.446 16.8h-2.657zm-7.038-6h5.047l-2.125-6.6a2.82 2.82 0 01-.16-.564c-.035-.2-.07-.388-.106-.564a6.743 6.743 0 01-.08-.552h-.106a6.431 6.431 0 01-.08.576c-.035.176-.075.36-.12.552a8.625 8.625 0 01-.145.552l-2.125 6.6zM85.707 11.54v16.8h-2.655v-7.68H76.41v7.68h-2.657v-16.8h2.657v7.44h6.64v-7.44h2.656zM89.56 19.94c0-1.552.159-2.876.477-3.972.319-1.096.77-1.992 1.356-2.688a5.067 5.067 0 012.099-1.512c.813-.312 1.718-.468 2.71-.468.743 0 1.398.068 1.964.204a9.025 9.025 0 011.461.468c.461.192.867.408 1.222.648l-.93 1.44h-.265a8.003 8.003 0 00-.902-.528 8.76 8.76 0 00-1.01-.372c-.39-.12-.813-.18-1.274-.18-.603 0-1.16.116-1.675.348-.513.232-.96.616-1.341 1.152-.38.536-.682 1.252-.903 2.148-.22.896-.331 2-.331 3.312 0 1.328.11 2.436.33 3.324.222.889.532 1.6.93 2.137.4.535.874.92 1.423 1.151a4.655 4.655 0 001.832.349c.46 0 .885-.057 1.275-.168.39-.112.725-.232 1.008-.36.32-.16.621-.345.903-.552h.266l.93 1.439a6.06 6.06 0 01-1.222.672 8.406 8.406 0 01-1.461.456c-.566.128-1.222.192-1.965.192-1.064 0-2.019-.156-2.87-.469a5.208 5.208 0 01-2.178-1.512c-.602-.695-1.063-1.588-1.382-2.676-.319-1.088-.478-2.415-.478-3.983zM110.944 19.58c.425.096.823.24 1.195.432.318.176.628.42.93.732.3.312.522.724.664 1.237l.93 3.84c.177.72.531 1.08 1.064 1.08.106 0 .229-.016.372-.049a.356.356 0 00.159-.072h.133l.265 1.561c-.106.048-.24.088-.398.12-.301.08-.7.12-1.195.12-.868 0-1.55-.221-2.047-.66-.495-.439-.832-1.02-1.008-1.74l-.931-3.84c-.141-.544-.407-.98-.796-1.309-.392-.327-.922-.491-1.594-.491h-1.861v7.8h-2.655v-16.8h2.655v7.32h1.594c.744 0 1.324-.164 1.739-.492.417-.328.679-.764.785-1.308l.664-3.36c.142-.72.469-1.3.984-1.74.512-.44 1.204-.66 2.071-.66.266 0 .496.012.692.036.195.024.362.052.503.084l.399.12-.266 1.56h-.133a.84.84 0 00-.159-.048 5.019 5.019 0 00-.173-.048.948.948 0 00-.876.24c-.186.176-.315.448-.386.816l-.664 3.36c-.089.48-.279.864-.572 1.152a3.349 3.349 0 01-.89.648 3.94 3.94 0 01-1.194.359zM122.367 28.34h-2.656v-16.8h2.656v10.68c0 .177-.006.384-.015.624-.008.24-.022.465-.038.672-.018.256-.036.504-.055.744h.108c.07-.24.15-.488.239-.744.088-.207.177-.432.266-.672.088-.24.185-.447.292-.624l5.844-10.68h2.655v16.8h-2.655V17.66a15.921 15.921 0 01.053-1.296l.053-.744h-.106c-.07.256-.151.504-.239.744-.089.224-.182.452-.279.684-.097.232-.19.436-.279.612l-5.844 10.68zM136.445 28.34v-16.8h10.359v1.68h-7.702v5.52h6.109v1.68h-6.109v6.24h7.702v1.68h-10.359zM186.396 11.6v16.8h-2.657v-7.68h-6.641v7.68h-2.655V11.6h2.655v7.44h6.641V11.6h2.657zM203.266 20c0 1.568-.161 2.896-.479 3.984-.318 1.088-.761 1.979-1.328 2.676a4.937 4.937 0 01-2.059 1.512c-.807.313-1.685.469-2.643.469-.957 0-1.837-.156-2.644-.469a4.907 4.907 0 01-2.058-1.512c-.568-.696-1.009-1.588-1.328-2.676-.319-1.088-.478-2.416-.478-3.984 0-1.552.159-2.876.478-3.972.319-1.096.761-1.992 1.328-2.688a4.91 4.91 0 012.058-1.512c.807-.312 1.687-.468 2.644-.468.958 0 1.836.156 2.643.468a4.907 4.907 0 012.059 1.512c.567.696 1.01 1.592 1.328 2.688.318 1.096.479 2.42.479 3.972zm-10.362 0c0 1.328.108 2.436.319 3.324.212.888.5 1.6.863 2.136s.774.921 1.236 1.151c.46.232.938.349 1.434.349.495 0 .974-.116 1.435-.349.46-.23.872-.615 1.235-1.151.362-.536.651-1.248.862-2.136.213-.889.319-1.996.319-3.324 0-1.312-.106-2.416-.319-3.312-.211-.896-.5-1.612-.862-2.148-.363-.536-.775-.92-1.235-1.152a3.17 3.17 0 00-1.435-.348c-.496 0-.974.116-1.434.348-.462.232-.873.616-1.236 1.152-.363.536-.651 1.252-.863 2.148-.211.896-.319 2-.319 3.312zM214.953 19.52c.691.144 1.311.4 1.86.768.23.16.456.348.677.564.22.216.421.468.598.755.176.289.319.617.425.984.106.368.159.784.159 1.248 0 .688-.128 1.313-.385 1.872a3.75 3.75 0 01-1.182 1.44c-.53.4-1.204.707-2.018.924-.815.216-1.789.324-2.923.324h-5.048V11.6h5.048c.956 0 1.802.108 2.537.324.735.216 1.346.508 1.833.876.486.368.853.813 1.102 1.332.248.52.372 1.076.372 1.668 0 .784-.159 1.416-.478 1.896-.319.48-.673.856-1.063 1.128-.461.32-.966.552-1.514.696zm-5.18-.72h2.391c1.009 0 1.793-.248 2.351-.744s.837-1.167.837-2.016-.279-1.52-.837-2.016c-.558-.496-1.342-.744-2.351-.744h-2.391v5.52zm0 1.68v6.24h2.391c1.328 0 2.302-.264 2.923-.792.62-.527.93-1.304.93-2.328 0-1.023-.31-1.8-.93-2.328-.621-.527-1.594-.792-2.923-.792h-2.391zM234.478 20c0 1.568-.16 2.896-.478 3.984-.319 1.088-.761 1.979-1.328 2.676a4.937 4.937 0 01-2.059 1.512c-.807.313-1.686.469-2.643.469-.958 0-1.838-.156-2.644-.469a4.9 4.9 0 01-2.058-1.512c-.568-.696-1.01-1.588-1.328-2.676-.319-1.088-.479-2.416-.479-3.984 0-1.552.16-2.876.479-3.972.318-1.096.761-1.992 1.328-2.688a4.91 4.91 0 012.058-1.512c.806-.312 1.686-.468 2.644-.468.957 0 1.836.156 2.643.468a4.907 4.907 0 012.059 1.512c.567.696 1.009 1.592 1.328 2.688.318 1.096.478 2.42.478 3.972zm-10.36 0c0 1.328.107 2.436.319 3.324.212.888.5 1.6.863 2.136s.774.921 1.235 1.151c.461.232.939.349 1.435.349.495 0 .974-.116 1.434-.349.461-.23.873-.615 1.236-1.151.362-.536.65-1.248.862-2.136.212-.889.319-1.996.319-3.324 0-1.312-.107-2.416-.319-3.312-.212-.896-.5-1.612-.862-2.148-.363-.536-.775-.92-1.236-1.152a3.162 3.162 0 00-1.434-.348c-.496 0-.974.116-1.435.348-.461.232-.872.616-1.235 1.152-.363.536-.651 1.252-.863 2.148-.213.896-.319 2-.319 3.312zM237.4 20c0-1.552.16-2.876.479-3.972.318-1.096.77-1.992 1.354-2.688a5.084 5.084 0 012.099-1.512c.814-.312 1.718-.468 2.71-.468.743 0 1.399.068 1.964.204a9.002 9.002 0 011.461.468c.461.192.868.408 1.222.648l-.929 1.44h-.265a8.06 8.06 0 00-.903-.528 8.786 8.786 0 00-1.01-.372 4.308 4.308 0 00-1.275-.18c-.602 0-1.16.116-1.673.348-.514.232-.961.616-1.342 1.152-.381.536-.682 1.252-.903 2.148-.221.896-.332 2-.332 3.312 0 1.328.111 2.436.332 3.324.221.888.531 1.6.931 2.136.397.536.871.921 1.42 1.151.549.232 1.16.349 1.833.349.46 0 .885-.056 1.275-.168.39-.112.725-.231 1.009-.36.319-.16.62-.344.903-.552h.265l.93 1.44a6.113 6.113 0 01-1.222.672 8.278 8.278 0 01-1.461.455c-.567.129-1.222.193-1.966.193-1.062 0-2.018-.156-2.869-.469a5.224 5.224 0 01-2.178-1.512c-.602-.696-1.063-1.588-1.382-2.676-.318-1.088-.477-2.415-.477-3.983zM254.667 28.4V13.28h-4.781V11.6h12.22v1.68h-4.782V28.4h-2.657zM267.419 28.4h-2.656V11.6h2.656v10.679a16.975 16.975 0 01-.053 1.297l-.053.744h.106c.071-.24.15-.488.24-.744.087-.208.176-.432.265-.672.088-.24.186-.448.293-.625L274.06 11.6h2.656v16.8h-2.656V17.72a18.512 18.512 0 01.054-1.296l.053-.744h-.107c-.07.256-.151.504-.239.744-.089.224-.182.452-.279.684-.097.232-.19.436-.279.612l-5.844 10.68z" fill="#fff"/></svg>